<?xml version="1.0" encoding="utf-8"?>
<!-- Generator: Adobe Illustrator 18.1.1, SVG Export Plug-In . SVG Version: 6.00 Build 0)  -->
<svg version="1.1" id="Capa_1" xmlns="http://www.w3.org/2000/svg" xmlns:xlink="http://www.w3.org/1999/xlink" x="0px" y="0px"
	 viewBox="0 0 1400 980" enable-background="new 0 0 1400 980" xml:space="preserve">
<rect fill="#EDDBC5" width="1400" height="980"/>
<g>
	<g>
		<g>
			<rect x="0" y="570.9" fill="#AA443C" width="1400" height="22.6"/>
		</g>
	</g>
	<g>
		<g>
			<rect x="0" y="617.1" fill="#AA443C" width="1400" height="22.6"/>
		</g>
	</g>
	<g>
		<g>
			<rect x="0" y="663.2" fill="#AA443C" width="1400" height="22.6"/>
		</g>
	</g>
	<g>
		<g>
			<rect x="0" y="708.8" fill="#AA443C" width="1400" height="22.6"/>
		</g>
	</g>
	<g>
		<g>
			<rect x="0" y="753.9" fill="#AA443C" width="1400" height="22.6"/>
		</g>
	</g>
	<g>
		<g>
			<rect x="0" y="799" fill="#AA443C" width="1400" height="22.6"/>
		</g>
	</g>
</g>
<g>
	<g>
		<g>
			<rect x="0" y="157.2" fill="#AA443C" width="1400" height="22.6"/>
		</g>
	</g>
	<g>
		<g>
			<rect x="0" y="203.3" fill="#AA443C" width="1400" height="22.6"/>
		</g>
	</g>
	<g>
		<g>
			<rect x="0" y="249.5" fill="#AA443C" width="1400" height="22.6"/>
		</g>
	</g>
	<g>
		<g>
			<rect x="0" y="295" fill="#AA443C" width="1400" height="22.6"/>
		</g>
	</g>
	<g>
		<g>
			<rect x="0" y="340.1" fill="#AA443C" width="1400" height="22.6"/>
		</g>
	</g>
	<g>
		<g>
			<rect x="0" y="385.2" fill="#AA443C" width="1400" height="22.6"/>
		</g>
	</g>
</g>
<g>
	<g>
		<rect y="903.5" fill="#2B5D7E" width="1400" height="76.5"/>
		<g>
			<polygon fill="#EDDBC5" points="35.4,960.7 47.9,951.7 60.4,960.7 55.7,946.2 68.2,937.3 52.7,937.3 47.9,922.9 43.2,937.3 
				27.7,937.3 40.2,946.2 			"/>
			<polygon fill="#EDDBC5" points="128.6,960.7 141.1,951.7 153.6,960.7 148.8,946.2 161.3,937.3 145.9,937.3 141.1,922.9 
				136.3,937.3 120.9,937.3 133.4,946.2 			"/>
			<polygon fill="#EDDBC5" points="221.7,960.7 234.2,951.7 246.7,960.7 242,946.2 254.5,937.3 239,937.3 234.2,922.9 229.5,937.3 
				214,937.3 226.5,946.2 			"/>
			<polygon fill="#EDDBC5" points="314.9,960.7 327.4,951.7 339.9,960.7 335.1,946.2 347.6,937.3 332.2,937.3 327.4,922.9 
				322.6,937.3 307.2,937.3 319.7,946.2 			"/>
			<polygon fill="#EDDBC5" points="408.1,960.7 420.5,951.7 433,960.7 428.3,946.2 440.8,937.3 425.3,937.3 420.5,922.9 
				415.8,937.3 400.3,937.3 412.8,946.2 			"/>
			<polygon fill="#EDDBC5" points="501.2,960.7 513.7,951.7 526.2,960.7 521.4,946.2 533.9,937.3 518.5,937.3 513.7,922.9 
				508.9,937.3 493.5,937.3 506,946.2 			"/>
			<polygon fill="#EDDBC5" points="594.4,960.7 606.8,951.7 619.3,960.7 614.6,946.2 627.1,937.3 611.6,937.3 606.8,922.9 
				602.1,937.3 586.6,937.3 599.1,946.2 			"/>
			<polygon fill="#EDDBC5" points="687.5,960.7 700,951.7 712.5,960.7 707.7,946.2 720.2,937.3 704.8,937.3 700,922.9 695.2,937.3 
				679.8,937.3 692.3,946.2 			"/>
			<polygon fill="#EDDBC5" points="780.7,960.7 793.1,951.7 805.6,960.7 800.9,946.2 813.4,937.3 797.9,937.3 793.1,922.9 
				788.4,937.3 772.9,937.3 785.4,946.2 			"/>
			<polygon fill="#EDDBC5" points="873.8,960.7 886.3,951.7 898.8,960.7 894,946.2 906.5,937.3 891.1,937.3 886.3,922.9 
				881.5,937.3 866.1,937.3 878.6,946.2 			"/>
			<polygon fill="#EDDBC5" points="967,960.7 979.5,951.7 991.9,960.7 987.2,946.2 999.7,937.3 984.2,937.3 979.5,922.9 
				974.7,937.3 959.2,937.3 971.7,946.2 			"/>
			<polygon fill="#EDDBC5" points="1060.1,960.7 1072.6,951.7 1085.1,960.7 1080.3,946.2 1092.8,937.3 1077.4,937.3 1072.6,922.9 
				1067.8,937.3 1052.4,937.3 1064.9,946.2 			"/>
			<polygon fill="#EDDBC5" points="1153.3,960.7 1165.8,951.7 1178.3,960.7 1173.5,946.2 1186,937.3 1170.5,937.3 1165.8,922.9 
				1161,937.3 1145.5,937.3 1158,946.2 			"/>
			<polygon fill="#EDDBC5" points="1246.4,960.7 1258.9,951.7 1271.4,960.7 1266.6,946.2 1279.1,937.3 1263.7,937.3 1258.9,922.9 
				1254.1,937.3 1238.7,937.3 1251.2,946.2 			"/>
			<polygon fill="#EDDBC5" points="1339.6,960.7 1352.1,951.7 1364.6,960.7 1359.8,946.2 1372.3,937.3 1356.8,937.3 1352.1,922.9 
				1347.3,937.3 1331.8,937.3 1344.3,946.2 			"/>
		</g>
	</g>
	<g>
		<rect y="827.5" fill="#2B5D7E" width="1400" height="76.5"/>
		<g>
			<polygon fill="#EDDBC5" points="35.4,884.7 47.9,875.7 60.4,884.7 55.7,870.2 68.2,861.3 52.7,861.3 47.9,846.9 43.2,861.3 
				27.7,861.3 40.2,870.2 			"/>
			<polygon fill="#EDDBC5" points="128.6,884.7 141.1,875.7 153.6,884.7 148.8,870.2 161.3,861.3 145.9,861.3 141.1,846.9 
				136.3,861.3 120.9,861.3 133.4,870.2 			"/>
			<polygon fill="#EDDBC5" points="221.7,884.7 234.2,875.7 246.7,884.7 242,870.2 254.5,861.3 239,861.3 234.2,846.9 229.5,861.3 
				214,861.3 226.5,870.2 			"/>
			<polygon fill="#EDDBC5" points="314.9,884.7 327.4,875.7 339.9,884.7 335.1,870.2 347.6,861.3 332.2,861.3 327.4,846.9 
				322.6,861.3 307.2,861.3 319.7,870.2 			"/>
			<polygon fill="#EDDBC5" points="408.1,884.7 420.5,875.7 433,884.7 428.3,870.2 440.8,861.3 425.3,861.3 420.5,846.9 
				415.8,861.3 400.3,861.3 412.8,870.2 			"/>
			<polygon fill="#EDDBC5" points="501.2,884.7 513.7,875.7 526.2,884.7 521.4,870.2 533.9,861.3 518.5,861.3 513.7,846.9 
				508.9,861.3 493.5,861.3 506,870.2 			"/>
			<polygon fill="#EDDBC5" points="594.4,884.7 606.8,875.7 619.3,884.7 614.6,870.2 627.1,861.3 611.6,861.3 606.8,846.9 
				602.1,861.3 586.6,861.3 599.1,870.2 			"/>
			<polygon fill="#EDDBC5" points="687.5,884.7 700,875.7 712.5,884.7 707.7,870.2 720.2,861.3 704.8,861.3 700,846.9 695.2,861.3 
				679.8,861.3 692.3,870.2 			"/>
			<polygon fill="#EDDBC5" points="780.7,884.7 793.1,875.7 805.6,884.7 800.9,870.2 813.4,861.3 797.9,861.3 793.1,846.9 
				788.4,861.3 772.9,861.3 785.4,870.2 			"/>
			<polygon fill="#EDDBC5" points="873.8,884.7 886.3,875.7 898.8,884.7 894,870.2 906.5,861.3 891.1,861.3 886.3,846.9 
				881.5,861.3 866.1,861.3 878.6,870.2 			"/>
			<polygon fill="#EDDBC5" points="967,884.7 979.5,875.7 991.9,884.7 987.2,870.2 999.7,861.3 984.2,861.3 979.5,846.9 
				974.7,861.3 959.2,861.3 971.7,870.2 			"/>
			<polygon fill="#EDDBC5" points="1060.1,884.7 1072.6,875.7 1085.1,884.7 1080.3,870.2 1092.8,861.3 1077.4,861.3 1072.6,846.9 
				1067.8,861.3 1052.4,861.3 1064.9,870.2 			"/>
			<polygon fill="#EDDBC5" points="1153.3,884.7 1165.8,875.7 1178.3,884.7 1173.5,870.2 1186,861.3 1170.5,861.3 1165.8,846.9 
				1161,861.3 1145.5,861.3 1158,870.2 			"/>
			<polygon fill="#EDDBC5" points="1246.4,884.7 1258.9,875.7 1271.4,884.7 1266.6,870.2 1279.1,861.3 1263.7,861.3 1258.9,846.9 
				1254.1,861.3 1238.7,861.3 1251.2,870.2 			"/>
			<polygon fill="#EDDBC5" points="1339.6,884.7 1352.1,875.7 1364.6,884.7 1359.8,870.2 1372.3,861.3 1356.8,861.3 1352.1,846.9 
				1347.3,861.3 1331.8,861.3 1344.3,870.2 			"/>
		</g>
	</g>
</g>
<g>
	<g>
		<rect y="488.5" fill="#2B5D7E" width="1400" height="76.5"/>
		<g>
			<polygon fill="#EDDBC5" points="35.4,545.6 47.9,536.7 60.4,545.6 55.7,531.2 68.2,522.2 52.7,522.2 47.9,507.8 43.2,522.2 
				27.7,522.2 40.2,531.2 			"/>
			<polygon fill="#EDDBC5" points="128.6,545.6 141.1,536.7 153.6,545.6 148.8,531.2 161.3,522.2 145.9,522.2 141.1,507.8 
				136.3,522.2 120.9,522.2 133.4,531.2 			"/>
			<polygon fill="#EDDBC5" points="221.7,545.6 234.2,536.7 246.7,545.6 242,531.2 254.5,522.2 239,522.2 234.2,507.8 229.5,522.2 
				214,522.2 226.5,531.2 			"/>
			<polygon fill="#EDDBC5" points="314.9,545.6 327.4,536.7 339.9,545.6 335.1,531.2 347.6,522.2 332.2,522.2 327.4,507.8 
				322.6,522.2 307.2,522.2 319.7,531.2 			"/>
			<polygon fill="#EDDBC5" points="408.1,545.6 420.5,536.7 433,545.6 428.3,531.2 440.8,522.2 425.3,522.2 420.5,507.8 
				415.8,522.2 400.3,522.2 412.8,531.2 			"/>
			<polygon fill="#EDDBC5" points="501.2,545.6 513.7,536.7 526.2,545.6 521.4,531.2 533.9,522.2 518.5,522.2 513.7,507.8 
				508.9,522.2 493.5,522.2 506,531.2 			"/>
			<polygon fill="#EDDBC5" points="594.4,545.6 606.8,536.7 619.3,545.6 614.6,531.2 627.1,522.2 611.6,522.2 606.8,507.8 
				602.1,522.2 586.6,522.2 599.1,531.2 			"/>
			<polygon fill="#EDDBC5" points="687.5,545.6 700,536.7 712.5,545.6 707.7,531.2 720.2,522.2 704.8,522.2 700,507.8 695.2,522.2 
				679.8,522.2 692.3,531.2 			"/>
			<polygon fill="#EDDBC5" points="780.7,545.6 793.1,536.7 805.6,545.6 800.9,531.2 813.4,522.2 797.9,522.2 793.1,507.8 
				788.4,522.2 772.9,522.2 785.4,531.2 			"/>
			<polygon fill="#EDDBC5" points="873.8,545.6 886.3,536.7 898.8,545.6 894,531.2 906.5,522.2 891.1,522.2 886.3,507.8 
				881.5,522.2 866.1,522.2 878.6,531.2 			"/>
			<polygon fill="#EDDBC5" points="967,545.6 979.5,536.7 991.9,545.6 987.2,531.2 999.7,522.2 984.2,522.2 979.5,507.8 
				974.7,522.2 959.2,522.2 971.7,531.2 			"/>
			<polygon fill="#EDDBC5" points="1060.1,545.6 1072.6,536.7 1085.1,545.6 1080.3,531.2 1092.8,522.2 1077.4,522.2 1072.6,507.8 
				1067.8,522.2 1052.4,522.2 1064.9,531.2 			"/>
			<polygon fill="#EDDBC5" points="1153.3,545.6 1165.8,536.7 1178.3,545.6 1173.5,531.2 1186,522.2 1170.5,522.2 1165.8,507.8 
				1161,522.2 1145.5,522.2 1158,531.2 			"/>
			<polygon fill="#EDDBC5" points="1246.4,545.6 1258.9,536.7 1271.4,545.6 1266.6,531.2 1279.1,522.2 1263.7,522.2 1258.9,507.8 
				1254.1,522.2 1238.7,522.2 1251.2,531.2 			"/>
			<polygon fill="#EDDBC5" points="1339.6,545.6 1352.1,536.7 1364.6,545.6 1359.8,531.2 1372.3,522.2 1356.8,522.2 1352.1,507.8 
				1347.3,522.2 1331.8,522.2 1344.3,531.2 			"/>
		</g>
	</g>
	<g>
		<rect y="412.5" fill="#2B5D7E" width="1400" height="76.5"/>
		<g>
			<polygon fill="#EDDBC5" points="35.4,469.6 47.9,460.7 60.4,469.6 55.7,455.2 68.2,446.2 52.7,446.2 47.9,431.8 43.2,446.2 
				27.7,446.2 40.2,455.2 			"/>
			<polygon fill="#EDDBC5" points="128.6,469.6 141.1,460.7 153.6,469.6 148.8,455.2 161.3,446.2 145.9,446.2 141.1,431.8 
				136.3,446.2 120.9,446.2 133.4,455.2 			"/>
			<polygon fill="#EDDBC5" points="221.7,469.6 234.2,460.7 246.7,469.6 242,455.2 254.5,446.2 239,446.2 234.2,431.8 229.5,446.2 
				214,446.2 226.5,455.2 			"/>
			<polygon fill="#EDDBC5" points="314.9,469.6 327.4,460.7 339.9,469.6 335.1,455.2 347.6,446.2 332.2,446.2 327.4,431.8 
				322.6,446.2 307.2,446.2 319.7,455.2 			"/>
			<polygon fill="#EDDBC5" points="408.1,469.6 420.5,460.7 433,469.6 428.3,455.2 440.8,446.2 425.3,446.2 420.5,431.8 
				415.8,446.2 400.3,446.2 412.8,455.2 			"/>
			<polygon fill="#EDDBC5" points="501.2,469.6 513.7,460.7 526.2,469.6 521.4,455.2 533.9,446.2 518.5,446.2 513.7,431.8 
				508.9,446.2 493.5,446.2 506,455.2 			"/>
			<polygon fill="#EDDBC5" points="594.4,469.6 606.8,460.7 619.3,469.6 614.6,455.2 627.1,446.2 611.6,446.2 606.8,431.8 
				602.1,446.2 586.6,446.2 599.1,455.2 			"/>
			<polygon fill="#EDDBC5" points="687.5,469.6 700,460.7 712.5,469.6 707.7,455.2 720.2,446.2 704.8,446.2 700,431.8 695.2,446.2 
				679.8,446.2 692.3,455.2 			"/>
			<polygon fill="#EDDBC5" points="780.7,469.6 793.1,460.7 805.6,469.6 800.9,455.2 813.4,446.2 797.9,446.2 793.1,431.8 
				788.4,446.2 772.9,446.2 785.4,455.2 			"/>
			<polygon fill="#EDDBC5" points="873.8,469.6 886.3,460.7 898.8,469.6 894,455.2 906.5,446.2 891.1,446.2 886.3,431.8 
				881.5,446.2 866.1,446.2 878.6,455.2 			"/>
			<polygon fill="#EDDBC5" points="967,469.6 979.5,460.7 991.9,469.6 987.2,455.2 999.7,446.2 984.2,446.2 979.5,431.8 
				974.7,446.2 959.2,446.2 971.7,455.2 			"/>
			<polygon fill="#EDDBC5" points="1060.1,469.6 1072.6,460.7 1085.1,469.6 1080.3,455.2 1092.8,446.2 1077.4,446.2 1072.6,431.8 
				1067.8,446.2 1052.4,446.2 1064.9,455.2 			"/>
			<polygon fill="#EDDBC5" points="1153.3,469.6 1165.8,460.7 1178.3,469.6 1173.5,455.2 1186,446.2 1170.5,446.2 1165.8,431.8 
				1161,446.2 1145.5,446.2 1158,455.2 			"/>
			<polygon fill="#EDDBC5" points="1246.4,469.6 1258.9,460.7 1271.4,469.6 1266.6,455.2 1279.1,446.2 1263.7,446.2 1258.9,431.8 
				1254.1,446.2 1238.7,446.2 1251.2,455.2 			"/>
			<polygon fill="#EDDBC5" points="1339.6,469.6 1352.1,460.7 1364.6,469.6 1359.8,455.2 1372.3,446.2 1356.8,446.2 1352.1,431.8 
				1347.3,446.2 1331.8,446.2 1344.3,455.2 			"/>
		</g>
	</g>
</g>
<g>
	<g>
		<rect y="76" fill="#2B5D7E" width="1400" height="76.5"/>
		<g>
			<polygon fill="#EDDBC5" points="35.4,133.1 47.9,124.2 60.4,133.1 55.7,118.7 68.2,109.8 52.7,109.8 47.9,95.3 43.2,109.8 
				27.7,109.8 40.2,118.7 			"/>
			<polygon fill="#EDDBC5" points="128.6,133.1 141.1,124.2 153.6,133.1 148.8,118.7 161.3,109.8 145.9,109.8 141.1,95.3 
				136.3,109.8 120.9,109.8 133.4,118.7 			"/>
			<polygon fill="#EDDBC5" points="221.7,133.1 234.2,124.2 246.7,133.1 242,118.7 254.5,109.8 239,109.8 234.2,95.3 229.5,109.8 
				214,109.8 226.5,118.7 			"/>
			<polygon fill="#EDDBC5" points="314.9,133.1 327.4,124.2 339.9,133.1 335.1,118.7 347.6,109.8 332.2,109.8 327.4,95.3 
				322.6,109.8 307.2,109.8 319.7,118.7 			"/>
			<polygon fill="#EDDBC5" points="408.1,133.1 420.5,124.2 433,133.1 428.3,118.7 440.8,109.8 425.3,109.8 420.5,95.3 415.8,109.8 
				400.3,109.8 412.8,118.7 			"/>
			<polygon fill="#EDDBC5" points="501.2,133.1 513.7,124.2 526.2,133.1 521.4,118.7 533.9,109.8 518.5,109.8 513.7,95.3 
				508.9,109.8 493.5,109.8 506,118.7 			"/>
			<polygon fill="#EDDBC5" points="594.4,133.1 606.8,124.2 619.3,133.1 614.6,118.7 627.1,109.8 611.6,109.8 606.8,95.3 
				602.1,109.8 586.6,109.8 599.1,118.7 			"/>
			<polygon fill="#EDDBC5" points="687.5,133.1 700,124.2 712.5,133.1 707.7,118.7 720.2,109.8 704.8,109.8 700,95.3 695.2,109.8 
				679.8,109.8 692.3,118.7 			"/>
			<polygon fill="#EDDBC5" points="780.7,133.1 793.1,124.2 805.6,133.1 800.9,118.7 813.4,109.8 797.9,109.8 793.1,95.3 
				788.4,109.8 772.9,109.8 785.4,118.7 			"/>
			<polygon fill="#EDDBC5" points="873.8,133.1 886.3,124.2 898.8,133.1 894,118.7 906.5,109.8 891.1,109.8 886.3,95.3 881.5,109.8 
				866.1,109.8 878.6,118.7 			"/>
			<polygon fill="#EDDBC5" points="967,133.1 979.5,124.2 991.9,133.1 987.2,118.7 999.7,109.8 984.2,109.8 979.5,95.3 974.7,109.8 
				959.2,109.8 971.7,118.7 			"/>
			<polygon fill="#EDDBC5" points="1060.1,133.1 1072.6,124.2 1085.1,133.1 1080.3,118.7 1092.8,109.8 1077.4,109.8 1072.6,95.3 
				1067.8,109.8 1052.4,109.8 1064.9,118.7 			"/>
			<polygon fill="#EDDBC5" points="1153.3,133.1 1165.8,124.2 1178.3,133.1 1173.5,118.7 1186,109.8 1170.5,109.8 1165.8,95.3 
				1161,109.8 1145.5,109.8 1158,118.7 			"/>
			<polygon fill="#EDDBC5" points="1246.4,133.1 1258.9,124.2 1271.4,133.1 1266.6,118.7 1279.1,109.8 1263.7,109.8 1258.9,95.3 
				1254.1,109.8 1238.7,109.8 1251.2,118.7 			"/>
			<polygon fill="#EDDBC5" points="1339.6,133.1 1352.1,124.2 1364.6,133.1 1359.8,118.7 1372.3,109.8 1356.8,109.8 1352.1,95.3 
				1347.3,109.8 1331.8,109.8 1344.3,118.7 			"/>
		</g>
	</g>
	<g>
		<rect fill="#2B5D7E" width="1400" height="76.5"/>
		<g>
			<polygon fill="#EDDBC5" points="35.4,57.1 47.9,48.2 60.4,57.1 55.7,42.7 68.2,33.8 52.7,33.8 47.9,19.3 43.2,33.8 27.7,33.8 
				40.2,42.7 			"/>
			<polygon fill="#EDDBC5" points="128.6,57.1 141.1,48.2 153.6,57.1 148.8,42.7 161.3,33.8 145.9,33.8 141.1,19.3 136.3,33.8 
				120.9,33.8 133.4,42.7 			"/>
			<polygon fill="#EDDBC5" points="221.7,57.1 234.2,48.2 246.7,57.1 242,42.7 254.5,33.8 239,33.8 234.2,19.3 229.5,33.8 214,33.8 
				226.5,42.7 			"/>
			<polygon fill="#EDDBC5" points="314.9,57.1 327.4,48.2 339.9,57.1 335.1,42.7 347.6,33.8 332.2,33.8 327.4,19.3 322.6,33.8 
				307.2,33.8 319.7,42.7 			"/>
			<polygon fill="#EDDBC5" points="408.1,57.1 420.5,48.2 433,57.1 428.3,42.7 440.8,33.8 425.3,33.8 420.5,19.3 415.8,33.8 
				400.3,33.8 412.8,42.7 			"/>
			<polygon fill="#EDDBC5" points="501.2,57.1 513.7,48.2 526.2,57.1 521.4,42.7 533.9,33.8 518.5,33.8 513.7,19.3 508.9,33.8 
				493.5,33.8 506,42.7 			"/>
			<polygon fill="#EDDBC5" points="594.4,57.1 606.8,48.2 619.3,57.1 614.6,42.7 627.1,33.8 611.6,33.8 606.8,19.3 602.1,33.8 
				586.6,33.8 599.1,42.7 			"/>
			<polygon fill="#EDDBC5" points="687.5,57.1 700,48.2 712.5,57.1 707.7,42.7 720.2,33.8 704.8,33.8 700,19.3 695.2,33.8 
				679.8,33.8 692.3,42.7 			"/>
			<polygon fill="#EDDBC5" points="780.7,57.1 793.1,48.2 805.6,57.1 800.9,42.7 813.4,33.8 797.9,33.8 793.1,19.3 788.4,33.8 
				772.9,33.8 785.4,42.7 			"/>
			<polygon fill="#EDDBC5" points="873.8,57.1 886.3,48.2 898.8,57.1 894,42.7 906.5,33.8 891.1,33.8 886.3,19.3 881.5,33.8 
				866.1,33.8 878.6,42.7 			"/>
			<polygon fill="#EDDBC5" points="967,57.1 979.5,48.2 991.9,57.1 987.2,42.7 999.7,33.8 984.2,33.8 979.5,19.3 974.7,33.8 
				959.2,33.8 971.7,42.7 			"/>
			<polygon fill="#EDDBC5" points="1060.1,57.1 1072.6,48.2 1085.1,57.1 1080.3,42.7 1092.8,33.8 1077.4,33.8 1072.6,19.3 
				1067.8,33.8 1052.4,33.8 1064.9,42.7 			"/>
			<polygon fill="#EDDBC5" points="1153.3,57.1 1165.8,48.2 1178.3,57.1 1173.5,42.7 1186,33.8 1170.5,33.8 1165.8,19.3 1161,33.8 
				1145.5,33.8 1158,42.7 			"/>
			<polygon fill="#EDDBC5" points="1246.4,57.1 1258.9,48.2 1271.4,57.1 1266.6,42.7 1279.1,33.8 1263.7,33.8 1258.9,19.3 
				1254.1,33.8 1238.7,33.8 1251.2,42.7 			"/>
			<polygon fill="#EDDBC5" points="1339.6,57.1 1352.1,48.2 1364.6,57.1 1359.8,42.7 1372.3,33.8 1356.8,33.8 1352.1,19.3 
				1347.3,33.8 1331.8,33.8 1344.3,42.7 			"/>
		</g>
	</g>
</g>
<g>
	<g>
		<rect y="903.5" fill="#2B5D7E" width="1400" height="76.5"/>
		<g>
			<polygon fill="#EDDBC5" points="35.4,960.7 47.9,951.7 60.4,960.7 55.7,946.2 68.2,937.3 52.7,937.3 47.9,922.9 43.2,937.3 
				27.7,937.3 40.2,946.2 			"/>
			<polygon fill="#EDDBC5" points="128.6,960.7 141.1,951.7 153.6,960.7 148.8,946.2 161.3,937.3 145.9,937.3 141.1,922.9 
				136.3,937.3 120.9,937.3 133.4,946.2 			"/>
			<polygon fill="#EDDBC5" points="221.7,960.7 234.2,951.7 246.7,960.7 242,946.2 254.5,937.3 239,937.3 234.2,922.9 229.5,937.3 
				214,937.3 226.5,946.2 			"/>
			<polygon fill="#EDDBC5" points="314.9,960.7 327.4,951.7 339.9,960.7 335.1,946.2 347.6,937.3 332.2,937.3 327.4,922.9 
				322.6,937.3 307.2,937.3 319.7,946.2 			"/>
			<polygon fill="#EDDBC5" points="408.1,960.7 420.5,951.7 433,960.7 428.3,946.2 440.8,937.3 425.3,937.3 420.5,922.9 
				415.8,937.3 400.3,937.3 412.8,946.2 			"/>
			<polygon fill="#EDDBC5" points="501.2,960.7 513.7,951.7 526.2,960.7 521.4,946.2 533.9,937.3 518.5,937.3 513.7,922.9 
				508.9,937.3 493.5,937.3 506,946.2 			"/>
			<polygon fill="#EDDBC5" points="594.4,960.7 606.8,951.7 619.3,960.7 614.6,946.2 627.1,937.3 611.6,937.3 606.8,922.9 
				602.1,937.3 586.6,937.3 599.1,946.2 			"/>
			<polygon fill="#EDDBC5" points="687.5,960.7 700,951.7 712.5,960.7 707.7,946.2 720.2,937.3 704.8,937.3 700,922.9 695.2,937.3 
				679.8,937.3 692.3,946.2 			"/>
			<polygon fill="#EDDBC5" points="780.7,960.7 793.1,951.7 805.6,960.7 800.9,946.2 813.4,937.3 797.9,937.3 793.1,922.9 
				788.4,937.3 772.9,937.3 785.4,946.2 			"/>
			<polygon fill="#EDDBC5" points="873.8,960.7 886.3,951.7 898.8,960.7 894,946.2 906.5,937.3 891.1,937.3 886.3,922.9 
				881.5,937.3 866.1,937.3 878.6,946.2 			"/>
			<polygon fill="#EDDBC5" points="967,960.7 979.5,951.7 991.9,960.7 987.2,946.2 999.7,937.3 984.2,937.3 979.5,922.9 
				974.7,937.3 959.2,937.3 971.7,946.2 			"/>
			<polygon fill="#EDDBC5" points="1060.1,960.7 1072.6,951.7 1085.1,960.7 1080.3,946.2 1092.8,937.3 1077.4,937.3 1072.6,922.9 
				1067.8,937.3 1052.4,937.3 1064.9,946.2 			"/>
			<polygon fill="#EDDBC5" points="1153.3,960.7 1165.8,951.7 1178.3,960.7 1173.5,946.2 1186,937.3 1170.5,937.3 1165.8,922.9 
				1161,937.3 1145.5,937.3 1158,946.2 			"/>
			<polygon fill="#EDDBC5" points="1246.4,960.7 1258.9,951.7 1271.4,960.7 1266.6,946.2 1279.1,937.3 1263.7,937.3 1258.9,922.9 
				1254.1,937.3 1238.7,937.3 1251.2,946.2 			"/>
			<polygon fill="#EDDBC5" points="1339.6,960.7 1352.1,951.7 1364.6,960.7 1359.8,946.2 1372.3,937.3 1356.8,937.3 1352.1,922.9 
				1347.3,937.3 1331.8,937.3 1344.3,946.2 			"/>
		</g>
	</g>
	<g>
		<rect y="827.5" fill="#2B5D7E" width="1400" height="76.5"/>
		<g>
			<polygon fill="#EDDBC5" points="35.4,884.7 47.9,875.7 60.4,884.7 55.7,870.2 68.2,861.3 52.7,861.3 47.9,846.9 43.2,861.3 
				27.7,861.3 40.2,870.2 			"/>
			<polygon fill="#EDDBC5" points="128.6,884.7 141.1,875.7 153.6,884.7 148.8,870.2 161.3,861.3 145.9,861.3 141.1,846.9 
				136.3,861.3 120.9,861.3 133.4,870.2 			"/>
			<polygon fill="#EDDBC5" points="221.7,884.7 234.2,875.7 246.7,884.7 242,870.2 254.5,861.3 239,861.3 234.2,846.9 229.5,861.3 
				214,861.3 226.5,870.2 			"/>
			<polygon fill="#EDDBC5" points="314.9,884.7 327.4,875.7 339.9,884.7 335.1,870.2 347.6,861.3 332.2,861.3 327.4,846.9 
				322.6,861.3 307.2,861.3 319.7,870.2 			"/>
			<polygon fill="#EDDBC5" points="408.1,884.7 420.5,875.7 433,884.7 428.3,870.2 440.8,861.3 425.3,861.3 420.5,846.9 
				415.8,861.3 400.3,861.3 412.8,870.2 			"/>
			<polygon fill="#EDDBC5" points="501.2,884.7 513.7,875.7 526.2,884.7 521.4,870.2 533.9,861.3 518.5,861.3 513.7,846.9 
				508.9,861.3 493.5,861.3 506,870.2 			"/>
			<polygon fill="#EDDBC5" points="594.4,884.7 606.8,875.7 619.3,884.7 614.6,870.2 627.1,861.3 611.6,861.3 606.8,846.9 
				602.1,861.3 586.6,861.3 599.1,870.2 			"/>
			<polygon fill="#EDDBC5" points="687.5,884.7 700,875.7 712.5,884.7 707.7,870.2 720.2,861.3 704.8,861.3 700,846.9 695.2,861.3 
				679.8,861.3 692.3,870.2 			"/>
			<polygon fill="#EDDBC5" points="780.7,884.7 793.1,875.7 805.6,884.7 800.9,870.2 813.4,861.3 797.9,861.3 793.1,846.9 
				788.4,861.3 772.9,861.3 785.4,870.2 			"/>
			<polygon fill="#EDDBC5" points="873.8,884.7 886.3,875.7 898.8,884.7 894,870.2 906.5,861.3 891.1,861.3 886.3,846.9 
				881.5,861.3 866.1,861.3 878.6,870.2 			"/>
			<polygon fill="#EDDBC5" points="967,884.7 979.5,875.7 991.9,884.7 987.2,870.2 999.7,861.3 984.2,861.3 979.5,846.9 
				974.7,861.3 959.2,861.3 971.7,870.2 			"/>
			<polygon fill="#EDDBC5" points="1060.1,884.7 1072.6,875.7 1085.1,884.7 1080.3,870.2 1092.8,861.3 1077.4,861.3 1072.6,846.9 
				1067.8,861.3 1052.4,861.3 1064.9,870.2 			"/>
			<polygon fill="#EDDBC5" points="1153.3,884.7 1165.8,875.7 1178.3,884.7 1173.5,870.2 1186,861.3 1170.5,861.3 1165.8,846.9 
				1161,861.3 1145.5,861.3 1158,870.2 			"/>
			<polygon fill="#EDDBC5" points="1246.4,884.7 1258.9,875.7 1271.4,884.7 1266.6,870.2 1279.1,861.3 1263.7,861.3 1258.9,846.9 
				1254.1,861.3 1238.7,861.3 1251.2,870.2 			"/>
			<polygon fill="#EDDBC5" points="1339.6,884.7 1352.1,875.7 1364.6,884.7 1359.8,870.2 1372.3,861.3 1356.8,861.3 1352.1,846.9 
				1347.3,861.3 1331.8,861.3 1344.3,870.2 			"/>
		</g>
	</g>
</g>
<g>
	<g>
		<rect y="488.5" fill="#2B5D7E" width="1400" height="76.5"/>
		<g>
			<polygon fill="#EDDBC5" points="35.4,545.6 47.9,536.7 60.4,545.6 55.7,531.2 68.2,522.2 52.7,522.2 47.9,507.8 43.2,522.2 
				27.7,522.2 40.2,531.2 			"/>
			<polygon fill="#EDDBC5" points="128.6,545.6 141.1,536.7 153.6,545.6 148.8,531.2 161.3,522.2 145.9,522.2 141.1,507.8 
				136.3,522.2 120.9,522.2 133.4,531.2 			"/>
			<polygon fill="#EDDBC5" points="221.7,545.6 234.2,536.7 246.7,545.6 242,531.2 254.5,522.2 239,522.2 234.2,507.8 229.5,522.2 
				214,522.2 226.5,531.2 			"/>
			<polygon fill="#EDDBC5" points="314.9,545.6 327.4,536.7 339.9,545.6 335.1,531.2 347.6,522.2 332.2,522.2 327.4,507.8 
				322.6,522.2 307.2,522.2 319.7,531.2 			"/>
			<polygon fill="#EDDBC5" points="408.1,545.6 420.5,536.7 433,545.6 428.3,531.2 440.8,522.2 425.3,522.2 420.5,507.8 
				415.8,522.2 400.3,522.2 412.8,531.2 			"/>
			<polygon fill="#EDDBC5" points="501.2,545.6 513.7,536.7 526.2,545.6 521.4,531.2 533.9,522.2 518.5,522.2 513.7,507.8 
				508.9,522.2 493.5,522.2 506,531.2 			"/>
			<polygon fill="#EDDBC5" points="594.4,545.6 606.8,536.7 619.3,545.6 614.6,531.2 627.1,522.2 611.6,522.2 606.8,507.8 
				602.1,522.2 586.6,522.2 599.1,531.2 			"/>
			<polygon fill="#EDDBC5" points="687.5,545.6 700,536.7 712.5,545.6 707.7,531.2 720.2,522.2 704.8,522.2 700,507.8 695.2,522.2 
				679.8,522.2 692.3,531.2 			"/>
			<polygon fill="#EDDBC5" points="780.7,545.6 793.1,536.7 805.6,545.6 800.9,531.2 813.4,522.2 797.9,522.2 793.1,507.8 
				788.4,522.2 772.9,522.2 785.4,531.2 			"/>
			<polygon fill="#EDDBC5" points="873.8,545.6 886.3,536.7 898.8,545.6 894,531.2 906.5,522.2 891.1,522.2 886.3,507.8 
				881.5,522.2 866.1,522.2 878.6,531.2 			"/>
			<polygon fill="#EDDBC5" points="967,545.6 979.5,536.7 991.9,545.6 987.2,531.2 999.7,522.2 984.2,522.2 979.5,507.8 
				974.7,522.2 959.2,522.2 971.7,531.2 			"/>
			<polygon fill="#EDDBC5" points="1060.1,545.6 1072.6,536.7 1085.1,545.6 1080.3,531.2 1092.8,522.2 1077.4,522.2 1072.6,507.8 
				1067.8,522.2 1052.4,522.2 1064.9,531.2 			"/>
			<polygon fill="#EDDBC5" points="1153.3,545.6 1165.8,536.7 1178.3,545.6 1173.5,531.2 1186,522.2 1170.5,522.2 1165.8,507.8 
				1161,522.2 1145.5,522.2 1158,531.2 			"/>
			<polygon fill="#EDDBC5" points="1246.4,545.6 1258.9,536.7 1271.4,545.6 1266.6,531.2 1279.1,522.2 1263.7,522.2 1258.9,507.8 
				1254.1,522.2 1238.7,522.2 1251.2,531.2 			"/>
			<polygon fill="#EDDBC5" points="1339.6,545.6 1352.1,536.7 1364.6,545.6 1359.8,531.2 1372.3,522.2 1356.8,522.2 1352.1,507.8 
				1347.3,522.2 1331.8,522.2 1344.3,531.2 			"/>
		</g>
	</g>
	<g>
		<rect y="412.5" fill="#2B5D7E" width="1400" height="76.5"/>
		<g>
			<polygon fill="#EDDBC5" points="35.4,469.6 47.9,460.7 60.4,469.6 55.7,455.2 68.2,446.2 52.7,446.2 47.9,431.8 43.2,446.2 
				27.7,446.2 40.2,455.2 			"/>
			<polygon fill="#EDDBC5" points="128.6,469.6 141.1,460.7 153.6,469.6 148.8,455.2 161.3,446.2 145.9,446.2 141.1,431.8 
				136.3,446.2 120.9,446.2 133.4,455.2 			"/>
			<polygon fill="#EDDBC5" points="221.7,469.6 234.2,460.7 246.7,469.6 242,455.2 254.5,446.2 239,446.2 234.2,431.8 229.5,446.2 
				214,446.2 226.5,455.2 			"/>
			<polygon fill="#EDDBC5" points="314.9,469.6 327.4,460.7 339.9,469.6 335.1,455.2 347.6,446.2 332.2,446.2 327.4,431.8 
				322.6,446.2 307.2,446.2 319.7,455.2 			"/>
			<polygon fill="#EDDBC5" points="408.1,469.6 420.5,460.7 433,469.6 428.3,455.2 440.8,446.2 425.3,446.2 420.5,431.8 
				415.8,446.2 400.3,446.2 412.8,455.2 			"/>
			<polygon fill="#EDDBC5" points="501.2,469.6 513.7,460.7 526.2,469.6 521.4,455.2 533.9,446.2 518.5,446.2 513.7,431.8 
				508.9,446.2 493.5,446.2 506,455.2 			"/>
			<polygon fill="#EDDBC5" points="594.4,469.6 606.8,460.7 619.3,469.6 614.6,455.2 627.1,446.2 611.6,446.2 606.8,431.8 
				602.1,446.2 586.6,446.2 599.1,455.2 			"/>
			<polygon fill="#EDDBC5" points="687.5,469.6 700,460.7 712.5,469.6 707.7,455.2 720.2,446.2 704.8,446.2 700,431.8 695.2,446.2 
				679.8,446.2 692.3,455.2 			"/>
			<polygon fill="#EDDBC5" points="780.7,469.6 793.1,460.7 805.6,469.6 800.9,455.2 813.4,446.2 797.9,446.2 793.1,431.8 
				788.4,446.2 772.9,446.2 785.4,455.2 			"/>
			<polygon fill="#EDDBC5" points="873.8,469.6 886.3,460.7 898.8,469.6 894,455.2 906.5,446.2 891.1,446.2 886.3,431.8 
				881.5,446.2 866.1,446.2 878.6,455.2 			"/>
			<polygon fill="#EDDBC5" points="967,469.6 979.5,460.7 991.9,469.6 987.2,455.2 999.7,446.2 984.2,446.2 979.5,431.8 
				974.7,446.2 959.2,446.2 971.7,455.2 			"/>
			<polygon fill="#EDDBC5" points="1060.1,469.6 1072.6,460.7 1085.1,469.6 1080.3,455.2 1092.8,446.2 1077.4,446.2 1072.6,431.8 
				1067.8,446.2 1052.4,446.2 1064.9,455.2 			"/>
			<polygon fill="#EDDBC5" points="1153.3,469.6 1165.8,460.7 1178.3,469.6 1173.5,455.2 1186,446.2 1170.5,446.2 1165.8,431.8 
				1161,446.2 1145.5,446.2 1158,455.2 			"/>
			<polygon fill="#EDDBC5" points="1246.4,469.6 1258.9,460.7 1271.4,469.6 1266.6,455.2 1279.1,446.2 1263.7,446.2 1258.9,431.8 
				1254.1,446.2 1238.7,446.2 1251.2,455.2 			"/>
			<polygon fill="#EDDBC5" points="1339.6,469.6 1352.1,460.7 1364.6,469.6 1359.8,455.2 1372.3,446.2 1356.8,446.2 1352.1,431.8 
				1347.3,446.2 1331.8,446.2 1344.3,455.2 			"/>
		</g>
	</g>
</g>
<g>
	<g>
		<g>
			<path fill="#EDDBC5" d="M714.8,897.3c0.4,0,0.7,0.3,0.7,0.3l-6.4,13.6c-0.7,0-2.4,0.1-2.8,0.1c-0.4,0-0.7-0.3-0.7-0.3l-2.2-13.6
				c1.3,0,3-0.1,3.5-0.1c0.4,0,0.7,0.3,0.7,0.3l0.7,6.7c0.1,0.6,0.1,1.4,0,2.2c0.2-0.9,0.5-1.8,0.7-2.4l2.7-6.8
				C712.9,897.4,714.3,897.3,714.8,897.3L714.8,897.3z"/>
		</g>
		<g>
			<path fill="#EDDBC5" d="M721.4,904.1c0,1.5-0.8,2.5-2.9,2.9l-2.2,0.4c0.2,0.9,0.8,1.4,1.7,1.4c1.2,0,2-0.9,2-0.9s0.6,0.3,0.6,1
				c0,1.2-1.9,2.6-4.1,2.6c-2.2,0-3.7-1.4-3.7-3.8c0-2.8,2-6.5,5.4-6.5C720.2,901.2,721.4,902.3,721.4,904.1L721.4,904.1z
				 M717.7,905.5c0.5-0.1,0.6-0.5,0.6-1c0-0.4-0.1-1-0.6-1c-0.9,0-1.2,1.4-1.4,2.4L717.7,905.5z"/>
		</g>
		<g>
			<path fill="#EDDBC5" d="M727.2,901.2c1.8,0,3.1,0.9,3.1,2.1c0,1.5-1.8,2.1-1.8,2.1s-0.5-1.7-1.8-1.7c-0.8,0-1.3,0.8-1.3,2.6
				c0,1.7,0.4,2.4,1.5,2.4c1.1,0,1.8-0.7,1.8-0.7s0.6,0.3,0.6,1c0,1.2-1.8,2.4-3.9,2.4c-2.3,0-3.7-1.4-3.7-3.8
				C721.7,904.9,723.7,901.2,727.2,901.2L727.2,901.2z"/>
		</g>
		<g>
			<path fill="#EDDBC5" d="M735.7,899c0.4,0,0.7,0.3,0.7,0.3l-0.3,2.1h2.2l-0.5,1.6c-0.2,0.5-0.4,0.8-0.9,0.8h-1.2l-0.6,4.1
				c-0.1,0.7,0,1,0.5,1c0.4,0,0.8-0.2,0.8-0.2s0.6,0.3,0.6,1c0,1-1.4,2-3.2,2c-1.9,0-2.7-1.2-2.3-3.2l0.7-4.5h-1.2l0.5-1.7
				c0.1-0.4,0.5-0.7,0.9-0.7h0.6l0.7-1.9C734.5,899.3,735.3,899,735.7,899L735.7,899z"/>
		</g>
		<g>
			<path fill="#EDDBC5" d="M746.4,904.1c0,1.5-0.8,2.5-2.9,2.9l-2.2,0.4c0.2,0.9,0.8,1.4,1.7,1.4c1.2,0,2-0.9,2-0.9s0.6,0.3,0.6,1
				c0,1.2-1.9,2.6-4.1,2.6c-2.2,0-3.7-1.4-3.7-3.8c0-2.8,2-6.5,5.4-6.5C745.2,901.2,746.4,902.3,746.4,904.1L746.4,904.1z
				 M742.7,905.5c0.5-0.1,0.6-0.5,0.6-1c0-0.4-0.1-1-0.6-1c-0.9,0-1.2,1.4-1.4,2.4L742.7,905.5z"/>
		</g>
		<g>
			<path fill="#EDDBC5" d="M755.2,904.1c0,1.5-0.8,2.5-2.9,2.9l-2.2,0.4c0.2,0.9,0.8,1.4,1.7,1.4c1.2,0,2-0.9,2-0.9s0.6,0.3,0.6,1
				c0,1.2-1.9,2.6-4.1,2.6c-2.2,0-3.7-1.4-3.7-3.8c0-2.8,2-6.5,5.4-6.5C754,901.2,755.2,902.3,755.2,904.1L755.2,904.1z
				 M751.5,905.5c0.5-0.1,0.6-0.5,0.6-1c0-0.4-0.1-1-0.6-1c-0.9,0-1.2,1.4-1.4,2.4L751.5,905.5z"/>
		</g>
		<g>
			<path fill="#EDDBC5" d="M762.4,907.8c0,0,0.7,0.7,0.7,1.8c0,1.5-1.3,1.9-2.4,1.9c-1.4,0-2.4-0.7-3.5-1c-0.3,0.3-0.6,0.7-0.9,1
				c0,0-1.6,0-1.6-1.1c0-1.3,2.2-3.6,4.6-6.1c-0.3,0-0.5-0.1-0.8-0.1c-1.3,0-1.9,0.7-1.9,0.7s-0.7-0.8-0.6-1.8
				c0.1-1.4,1.4-1.8,2.5-1.8c1.1,0,2,0.4,2.8,0.8l0.7-0.8c0,0,1.6,0,1.6,1.1c0,1.3-2.1,3.5-4.4,6c0.5,0.1,0.9,0.2,1.4,0.2
				C761.9,908.5,762.4,907.8,762.4,907.8L762.4,907.8z"/>
		</g>
		<g>
			<path fill="#EDDBC5" d="M772.7,910.6c-0.6,3.5-3,5.2-6,5.2c-1.9,0-3.4-1-3.4-2.2c0-0.8,0.6-1.1,0.6-1.1s0.7,0.6,1.9,0.6
				c1.2,0,2.8-0.5,3.1-2.3l0.2-1.4c-0.8,1.2-1.9,2.1-3.2,2.1c-1.5,0-2.2-1.3-1.8-3.8l0.4-2.8c0.3-1.7,0.3-3.1,0.3-3.1
				c1.1-0.2,2.5-0.7,3-0.7c0.4,0,0.7,0.3,0.7,0.3l-0.5,3.4l-0.5,3.2c0,0.3,0,0.5,0.3,0.5c1.3,0,2-3.6,2-3.6c0.3-1.7,0.3-3.1,0.3-3.1
				c1.1-0.2,2.5-0.7,3-0.7c0.4,0,0.8,0.3,0.8,0.3l-0.5,3.4L772.7,910.6z"/>
		</g>
	</g>
	<g>
		<path fill="#EDDBC5" d="M625.8,901.8h3.4c0.8,0,1.4,0.1,1.8,0.2c0.5,0.2,1,0.4,1.4,0.9c0.4,0.4,0.7,0.9,0.9,1.5
			c0.2,0.6,0.3,1.3,0.3,2.2c0,0.8-0.1,1.4-0.3,2c-0.2,0.7-0.6,1.2-1,1.6c-0.3,0.3-0.8,0.6-1.3,0.7c-0.4,0.1-1,0.2-1.7,0.2h-3.5
			V901.8z M627.7,903.3v6.1h1.4c0.5,0,0.9,0,1.1-0.1c0.3-0.1,0.6-0.2,0.8-0.4c0.2-0.2,0.4-0.5,0.5-0.9c0.1-0.4,0.2-1,0.2-1.7
			c0-0.7-0.1-1.3-0.2-1.6c-0.1-0.4-0.3-0.7-0.5-0.9c-0.2-0.2-0.5-0.4-0.9-0.4c-0.3-0.1-0.8-0.1-1.5-0.1H627.7z"/>
		<path fill="#EDDBC5" d="M638.8,908.9l1.8,0.3c-0.2,0.6-0.6,1.1-1.1,1.5c-0.5,0.3-1.1,0.5-1.8,0.5c-1.2,0-2-0.4-2.6-1.1
			c-0.4-0.6-0.7-1.4-0.7-2.3c0-1.1,0.3-2,0.9-2.6c0.6-0.6,1.3-0.9,2.2-0.9c1,0,1.8,0.3,2.4,1c0.6,0.7,0.9,1.7,0.8,3h-4.4
			c0,0.5,0.2,0.9,0.4,1.2c0.3,0.3,0.6,0.4,1,0.4c0.3,0,0.5-0.1,0.7-0.2C638.5,909.5,638.7,909.2,638.8,908.9z M638.9,907.1
			c0-0.5-0.1-0.9-0.4-1.2c-0.3-0.3-0.6-0.4-0.9-0.4c-0.4,0-0.7,0.1-1,0.4c-0.3,0.3-0.4,0.7-0.4,1.1H638.9z"/>
		<path fill="#EDDBC5" d="M641.2,909.1l1.8-0.3c0.1,0.3,0.2,0.6,0.5,0.8c0.2,0.2,0.6,0.3,1,0.3c0.5,0,0.8-0.1,1-0.3
			c0.2-0.1,0.2-0.3,0.2-0.5c0-0.1,0-0.2-0.1-0.3c-0.1-0.1-0.3-0.2-0.6-0.2c-1.4-0.3-2.3-0.6-2.7-0.9c-0.5-0.4-0.8-0.9-0.8-1.5
			c0-0.6,0.2-1.1,0.7-1.5c0.5-0.4,1.2-0.6,2.1-0.6c0.9,0,1.6,0.1,2,0.4c0.4,0.3,0.8,0.7,0.9,1.3l-1.7,0.3c-0.1-0.3-0.2-0.5-0.4-0.6
			c-0.2-0.1-0.5-0.2-0.9-0.2c-0.5,0-0.8,0.1-1,0.2c-0.1,0.1-0.2,0.2-0.2,0.4c0,0.1,0.1,0.2,0.2,0.3c0.2,0.1,0.7,0.3,1.7,0.5
			c0.9,0.2,1.6,0.5,2,0.8c0.4,0.3,0.6,0.8,0.6,1.3c0,0.6-0.3,1.1-0.8,1.6c-0.5,0.4-1.3,0.7-2.3,0.7c-0.9,0-1.6-0.2-2.2-0.6
			C641.7,910.2,641.4,909.7,641.2,909.1z"/>
		<path fill="#EDDBC5" d="M648.7,903.4v-1.6h1.8v1.6H648.7z M648.7,911v-6.7h1.8v6.7H648.7z"/>
		<path fill="#EDDBC5" d="M651.9,911.4l2,0.2c0,0.2,0.1,0.4,0.2,0.5c0.2,0.1,0.4,0.2,0.8,0.2c0.5,0,0.8-0.1,1-0.2
			c0.2-0.1,0.3-0.2,0.4-0.4c0.1-0.1,0.1-0.4,0.1-0.8v-1c-0.5,0.7-1.2,1.1-2,1.1c-0.9,0-1.6-0.4-2.1-1.1c-0.4-0.6-0.6-1.3-0.6-2.2
			c0-1.1,0.3-2,0.8-2.6c0.5-0.6,1.2-0.9,2-0.9c0.8,0,1.5,0.4,2,1.1v-0.9h1.7v6c0,0.8-0.1,1.4-0.2,1.8c-0.1,0.4-0.3,0.7-0.5,0.9
			c-0.2,0.2-0.5,0.4-0.9,0.5s-0.9,0.2-1.5,0.2c-1.1,0-1.9-0.2-2.4-0.6s-0.7-0.9-0.7-1.5C651.9,911.6,651.9,911.5,651.9,911.4z
			 M653.5,907.5c0,0.7,0.1,1.2,0.4,1.6c0.3,0.3,0.6,0.5,1,0.5c0.4,0,0.8-0.2,1.1-0.5c0.3-0.3,0.4-0.8,0.4-1.5c0-0.7-0.1-1.2-0.4-1.5
			c-0.3-0.3-0.6-0.5-1.1-0.5c-0.4,0-0.8,0.2-1,0.5C653.6,906.3,653.5,906.8,653.5,907.5z"/>
		<path fill="#EDDBC5" d="M665.8,911H664v-3.4c0-0.7,0-1.2-0.1-1.4c-0.1-0.2-0.2-0.4-0.4-0.5c-0.2-0.1-0.4-0.2-0.6-0.2
			c-0.3,0-0.6,0.1-0.8,0.3c-0.2,0.2-0.4,0.4-0.5,0.7c-0.1,0.3-0.1,0.8-0.1,1.5v3h-1.8v-6.7h1.6v1c0.6-0.8,1.3-1.1,2.2-1.1
			c0.4,0,0.7,0.1,1.1,0.2c0.3,0.1,0.6,0.3,0.7,0.5c0.2,0.2,0.3,0.5,0.3,0.7c0.1,0.3,0.1,0.7,0.1,1.2V911z"/>
		<path fill="#EDDBC5" d="M671.2,908.9l1.8,0.3c-0.2,0.6-0.6,1.1-1.1,1.5c-0.5,0.3-1.1,0.5-1.8,0.5c-1.2,0-2-0.4-2.6-1.1
			c-0.4-0.6-0.7-1.4-0.7-2.3c0-1.1,0.3-2,0.9-2.6c0.6-0.6,1.3-0.9,2.2-0.9c1,0,1.8,0.3,2.4,1c0.6,0.7,0.9,1.7,0.8,3h-4.4
			c0,0.5,0.2,0.9,0.4,1.2c0.3,0.3,0.6,0.4,1,0.4c0.3,0,0.5-0.1,0.7-0.2S671.1,909.2,671.2,908.9z M671.3,907.1
			c0-0.5-0.1-0.9-0.4-1.2c-0.3-0.3-0.6-0.4-0.9-0.4c-0.4,0-0.7,0.1-1,0.4c-0.3,0.3-0.4,0.7-0.4,1.1H671.3z"/>
		<path fill="#EDDBC5" d="M680.4,911h-1.6v-1c-0.3,0.4-0.6,0.7-1,0.9c-0.4,0.2-0.7,0.3-1.1,0.3c-0.8,0-1.4-0.3-2-0.9
			c-0.5-0.6-0.8-1.5-0.8-2.6c0-1.1,0.3-2,0.8-2.6c0.5-0.6,1.2-0.9,2-0.9c0.7,0,1.4,0.3,1.9,0.9v-3.3h1.8V911z M675.7,907.5
			c0,0.7,0.1,1.2,0.3,1.6c0.3,0.5,0.7,0.7,1.2,0.7c0.4,0,0.8-0.2,1-0.5c0.3-0.3,0.4-0.9,0.4-1.6c0-0.8-0.1-1.3-0.4-1.7
			c-0.3-0.3-0.6-0.5-1.1-0.5c-0.4,0-0.8,0.2-1.1,0.5C675.8,906.3,675.7,906.8,675.7,907.5z"/>
		<path fill="#EDDBC5" d="M685.1,911v-9.2h1.8v3.3c0.5-0.6,1.2-0.9,1.9-0.9c0.8,0,1.5,0.3,2,0.9c0.5,0.6,0.8,1.4,0.8,2.5
			c0,1.1-0.3,2-0.8,2.6c-0.5,0.6-1.2,0.9-2,0.9c-0.4,0-0.8-0.1-1.1-0.3c-0.4-0.2-0.7-0.5-1-0.8v1H685.1z M686.9,907.5
			c0,0.7,0.1,1.2,0.3,1.5c0.3,0.5,0.7,0.7,1.2,0.7c0.4,0,0.7-0.2,1-0.5c0.3-0.3,0.4-0.9,0.4-1.6c0-0.8-0.1-1.3-0.4-1.7
			c-0.3-0.3-0.6-0.5-1.1-0.5c-0.4,0-0.8,0.2-1.1,0.5C687,906.3,686.9,906.8,686.9,907.5z"/>
		<path fill="#EDDBC5" d="M692,904.3h1.9l1.6,4.8l1.6-4.8h1.8l-2.4,6.4l-0.4,1.2c-0.2,0.4-0.3,0.7-0.4,0.9c-0.1,0.2-0.3,0.4-0.5,0.5
			c-0.2,0.1-0.4,0.2-0.7,0.3c-0.3,0.1-0.6,0.1-0.9,0.1c-0.3,0-0.7,0-1-0.1l-0.2-1.4c0.3,0.1,0.5,0.1,0.8,0.1c0.4,0,0.7-0.1,0.9-0.4
			c0.2-0.2,0.3-0.5,0.5-0.9L692,904.3z"/>
	</g>
</g>
</svg>
