<svg width="260" height="71" viewBox="0 0 260 71" fill="none" xmlns="http://www.w3.org/2000/svg">
<path d="M260 0H0V70.9576H260V0Z" fill="#2B5D7E"/>
<path d="M31.8461 52.9632L43.4444 44.708L55.0426 52.9632L50.6816 39.6064L62.2799 31.3512H47.8981L43.4444 17.9017L39.0834 31.3512H24.7016L36.2999 39.6064L31.8461 52.9632Z" fill="#EDDBC5"/>
<path d="M118.322 52.9632L129.921 44.708L141.519 52.9632L137.065 39.6064L148.663 31.3512H134.374L129.921 17.9017L125.467 31.3512H111.178L122.776 39.6064L118.322 52.9632Z" fill="#EDDBC5"/>
<path d="M204.706 52.9632L216.304 44.708L227.902 52.9632L223.541 39.6064L235.14 31.3512H220.758L216.304 17.9017L211.943 31.3512H197.561L209.16 39.6064L204.706 52.9632Z" fill="#EDDBC5"/>
</svg>
